<?xml version="1.0" encoding="UTF-8" standalone="no"?>
<!-- Created with Inkscape (http://www.inkscape.org/) -->

<svg
   width="60.549675mm"
   height="60.549675mm"
   viewBox="0 0 60.549675 60.549675"
   version="1.1"
   id="svg1"
   xml:space="preserve"
   sodipodi:docname="logo.svg"
   inkscape:version="1.4.2 (ebf0e940d0, 2025-05-08)"
   xmlns:inkscape="http://www.inkscape.org/namespaces/inkscape"
   xmlns:sodipodi="http://sodipodi.sourceforge.net/DTD/sodipodi-0.dtd"
   xmlns:xlink="http://www.w3.org/1999/xlink"
   xmlns="http://www.w3.org/2000/svg"
   xmlns:svg="http://www.w3.org/2000/svg"><sodipodi:namedview
     id="namedview1"
     pagecolor="#505050"
     bordercolor="#ffffff"
     borderopacity="1"
     inkscape:showpageshadow="0"
     inkscape:pageopacity="0"
     inkscape:pagecheckerboard="1"
     inkscape:deskcolor="#505050"
     inkscape:document-units="mm"
     inkscape:zoom="1.349469"
     inkscape:cx="-33.716965"
     inkscape:cy="167.10276"
     inkscape:window-width="1920"
     inkscape:window-height="1005"
     inkscape:window-x="0"
     inkscape:window-y="0"
     inkscape:window-maximized="1"
     inkscape:current-layer="layer1" /><defs
     id="defs1"><linearGradient
       id="linearGradient39"
       inkscape:collect="always"><stop
         style="stop-color:#00ffbe;stop-opacity:1;"
         offset="0"
         id="stop40" /><stop
         style="stop-color:#00309a;stop-opacity:1;"
         offset="0.3061817"
         id="stop42" /><stop
         style="stop-color:#7f0192;stop-opacity:1;"
         offset="1"
         id="stop41" /></linearGradient><linearGradient
       inkscape:collect="always"
       xlink:href="#linearGradient39"
       id="linearGradient41"
       x1="99.63871"
       y1="34.107101"
       x2="99.63871"
       y2="94.656769"
       gradientUnits="userSpaceOnUse" /></defs><g
     inkscape:label="Layer 1"
     inkscape:groupmode="layer"
     id="layer1"
     transform="translate(-69.363873,-34.107098)"><circle
       style="fill:url(#linearGradient41);stroke-width:0.5334"
       id="path1"
       cx="99.63871"
       cy="64.381935"
       r="30.274837" /><path
       d="m 115.50832,87.865058 q -7.19794,0 -14.22313,-3.138302 Q 94.259994,81.588454 88.501641,75.8301 82.743288,70.071747 79.604986,63.046557 76.466684,56.021368 76.466684,48.823426 q 0,-1.036503 0.691002,-1.727506 0.691003,-0.691002 1.727506,-0.691002 h 9.328531 q 0.80617,0 1.439589,0.547043 0.633418,0.547043 0.748586,1.295631 l 1.497171,8.061692 q 0.115167,0.921338 -0.05758,1.554755 -0.172751,0.63342 -0.633419,1.094089 l -5.585602,5.643184 q 1.15167,2.130592 2.735217,4.117222 1.583547,1.986633 3.483804,3.829304 1.785088,1.785091 3.74293,3.311053 1.957839,1.525964 4.14601,2.792803 l 5.412861,-5.412851 q 0.51825,-0.518254 1.35321,-0.777379 0.83496,-0.259127 1.64113,-0.143959 l 7.94653,1.61234 q 0.80617,0.230334 1.32442,0.83496 0.51825,0.604628 0.51825,1.353213 v 9.328532 q 0,1.036503 -0.691,1.727505 -0.69101,0.691003 -1.72751,0.691003 z M 83.434291,60.224965 87.234803,56.424452 86.255884,51.011601 h -5.124935 q 0.287918,2.360923 0.80617,4.664266 0.518252,2.30334 1.497172,4.549098 z M 104.0492,80.839867 q 2.24575,0.97892 4.57789,1.554755 2.33213,0.575837 4.69305,0.748587 v -5.067352 l -5.41285,-1.094086 z M 83.434291,60.224965 Z M 104.0492,80.839867 Z"
       id="path1-5"
       style="fill:#ffffff;fill-opacity:1;stroke:none;stroke-width:0.0576742;stroke-dasharray:none;stroke-opacity:1" /><g
       inkscape:label="Livello 1"
       id="layer1-9"
       transform="matrix(0.1050861,0,0,0.1050861,50.898935,27.242779)"
       style="fill:#ffffff;fill-opacity:1;stroke:none"><g
         id="g2396"
         style="fill:#ffffff;fill-opacity:1;stroke:none" /><path
         style="fill:#ffffff;fill-opacity:1;stroke:none;stroke-opacity:1"
         d="m 531.15625,165.4375 c -6.79637,18.80885 -11.36724,38.83237 -17.06203,58.18506 -2.87515,10.38623 -5.75031,20.77246 -8.62547,31.15869 -29.79093,8.37531 -59.85563,16.22137 -89.375,25.21875 -4.39686,3.24345 3.36013,4.72368 5.7578,5.48626 27.71858,8.23652 55.73112,15.64321 83.6172,23.41999 8.34904,29.41606 15.89915,59.1507 24.84375,88.34375 3.75023,3.19632 5.43638,-3.69723 6.19123,-6.22993 8.2209,-27.19233 15.4152,-54.72374 23.12127,-82.08257 29.69663,-8.48422 59.78111,-15.92526 89.125,-25.4375 4.78041,-3.03352 -2.58231,-4.06209 -5.11388,-5.06926 -27.81776,-8.35581 -55.98036,-15.79565 -83.97987,-23.64949 -8.38619,-29.65928 -16.06761,-59.63751 -25.28125,-88.96875 -1.66224,-1.21727 -1.42817,-3.07275 -3.21875,-0.375 z"
         id="path2382" /><path
         style="fill:#ffffff;fill-opacity:1;stroke:none;stroke-opacity:1"
         d="m 531.81933,395.85496 c -0.51348,-1.375 -6.28552,-21.86331 -12.82674,-45.52958 l -11.89314,-43.02957 -45.16268,-12.47043 c -24.83948,-6.85873 -45.0131,-12.71957 -44.83028,-13.02409 0.18283,-0.30451 20.50823,-6.14424 45.16757,-12.97717 l 44.83515,-12.4235 12.40624,-44.77283 c 6.82342,-24.62506 12.69507,-44.77283 13.0481,-44.77283 0.35303,0 6.22468,20.14777 13.0481,44.77283 l 12.40624,44.77283 44.77283,12.40624 c 24.62506,6.82342 44.77283,12.69507 44.77283,13.0481 0,0.35303 -20.14884,6.22497 -44.77521,13.04876 l -44.7752,12.40689 -12.63011,45.52218 c -10.40804,37.51328 -12.79435,45.08234 -13.5637,43.02217 z"
         id="path2438" /></g><g
       inkscape:label="Livello 1"
       id="g3"
       transform="matrix(0.01045821,0,0,0.01045821,71.128701,67.173915)"
       style="fill:#ffffff;fill-opacity:1;stroke:none"><g
         id="g2"
         style="fill:#ffffff;fill-opacity:1;stroke:none" /><path
         style="fill:#ffffff;fill-opacity:1;stroke:none;stroke-opacity:1"
         d="m 531.15625,165.4375 c -6.79637,18.80885 -11.36724,38.83237 -17.06203,58.18506 -2.87515,10.38623 -5.75031,20.77246 -8.62547,31.15869 -29.79093,8.37531 -59.85563,16.22137 -89.375,25.21875 -4.39686,3.24345 3.36013,4.72368 5.7578,5.48626 27.71858,8.23652 55.73112,15.64321 83.6172,23.41999 8.34904,29.41606 15.89915,59.1507 24.84375,88.34375 3.75023,3.19632 5.43638,-3.69723 6.19123,-6.22993 8.2209,-27.19233 15.4152,-54.72374 23.12127,-82.08257 29.69663,-8.48422 59.78111,-15.92526 89.125,-25.4375 4.78041,-3.03352 -2.58231,-4.06209 -5.11388,-5.06926 -27.81776,-8.35581 -55.98036,-15.79565 -83.97987,-23.64949 -8.38619,-29.65928 -16.06761,-59.63751 -25.28125,-88.96875 -1.66224,-1.21727 -1.42817,-3.07275 -3.21875,-0.375 z"
         id="path2" /><path
         style="fill:#ffffff;fill-opacity:1;stroke:none;stroke-opacity:1"
         d="m 531.81933,395.85496 c -0.51348,-1.375 -6.28552,-21.86331 -12.82674,-45.52958 l -11.89314,-43.02957 -45.16268,-12.47043 c -24.83948,-6.85873 -45.0131,-12.71957 -44.83028,-13.02409 0.18283,-0.30451 20.50823,-6.14424 45.16757,-12.97717 l 44.83515,-12.4235 12.40624,-44.77283 c 6.82342,-24.62506 12.69507,-44.77283 13.0481,-44.77283 0.35303,0 6.22468,20.14777 13.0481,44.77283 l 12.40624,44.77283 44.77283,12.40624 c 24.62506,6.82342 44.77283,12.69507 44.77283,13.0481 0,0.35303 -20.14884,6.22497 -44.77521,13.04876 l -44.7752,12.40689 -12.63011,45.52218 c -10.40804,37.51328 -12.79435,45.08234 -13.5637,43.02217 z"
         id="path3" /></g><g
       inkscape:label="Livello 1"
       id="g13"
       transform="matrix(0.01004204,0,0,0.01004204,89.437307,34.695435)"
       style="fill:#ffffff;fill-opacity:1;stroke:none"><g
         id="g12"
         style="fill:#ffffff;fill-opacity:1;stroke:none" /><path
         style="fill:#ffffff;fill-opacity:1;stroke:none;stroke-opacity:1"
         d="m 531.15625,165.4375 c -6.79637,18.80885 -11.36724,38.83237 -17.06203,58.18506 -2.87515,10.38623 -5.75031,20.77246 -8.62547,31.15869 -29.79093,8.37531 -59.85563,16.22137 -89.375,25.21875 -4.39686,3.24345 3.36013,4.72368 5.7578,5.48626 27.71858,8.23652 55.73112,15.64321 83.6172,23.41999 8.34904,29.41606 15.89915,59.1507 24.84375,88.34375 3.75023,3.19632 5.43638,-3.69723 6.19123,-6.22993 8.2209,-27.19233 15.4152,-54.72374 23.12127,-82.08257 29.69663,-8.48422 59.78111,-15.92526 89.125,-25.4375 4.78041,-3.03352 -2.58231,-4.06209 -5.11388,-5.06926 -27.81776,-8.35581 -55.98036,-15.79565 -83.97987,-23.64949 -8.38619,-29.65928 -16.06761,-59.63751 -25.28125,-88.96875 -1.66224,-1.21727 -1.42817,-3.07275 -3.21875,-0.375 z"
         id="path12" /><path
         style="fill:#ffffff;fill-opacity:1;stroke:none;stroke-opacity:1"
         d="m 531.81933,395.85496 c -0.51348,-1.375 -6.28552,-21.86331 -12.82674,-45.52958 l -11.89314,-43.02957 -45.16268,-12.47043 c -24.83948,-6.85873 -45.0131,-12.71957 -44.83028,-13.02409 0.18283,-0.30451 20.50823,-6.14424 45.16757,-12.97717 l 44.83515,-12.4235 12.40624,-44.77283 c 6.82342,-24.62506 12.69507,-44.77283 13.0481,-44.77283 0.35303,0 6.22468,20.14777 13.0481,44.77283 l 12.40624,44.77283 44.77283,12.40624 c 24.62506,6.82342 44.77283,12.69507 44.77283,13.0481 0,0.35303 -20.14884,6.22497 -44.77521,13.04876 l -44.7752,12.40689 -12.63011,45.52218 c -10.40804,37.51328 -12.79435,45.08234 -13.5637,43.02217 z"
         id="path13" /></g><g
       inkscape:label="Livello 1"
       id="g15"
       transform="matrix(0.01004204,0,0,0.01004204,100.71103,34.8915)"
       style="fill:#ffffff;fill-opacity:1;stroke:none"><g
         id="g14"
         style="fill:#ffffff;fill-opacity:1;stroke:none" /><path
         style="fill:#ffffff;fill-opacity:1;stroke:none;stroke-opacity:1"
         d="m 531.15625,165.4375 c -6.79637,18.80885 -11.36724,38.83237 -17.06203,58.18506 -2.87515,10.38623 -5.75031,20.77246 -8.62547,31.15869 -29.79093,8.37531 -59.85563,16.22137 -89.375,25.21875 -4.39686,3.24345 3.36013,4.72368 5.7578,5.48626 27.71858,8.23652 55.73112,15.64321 83.6172,23.41999 8.34904,29.41606 15.89915,59.1507 24.84375,88.34375 3.75023,3.19632 5.43638,-3.69723 6.19123,-6.22993 8.2209,-27.19233 15.4152,-54.72374 23.12127,-82.08257 29.69663,-8.48422 59.78111,-15.92526 89.125,-25.4375 4.78041,-3.03352 -2.58231,-4.06209 -5.11388,-5.06926 -27.81776,-8.35581 -55.98036,-15.79565 -83.97987,-23.64949 -8.38619,-29.65928 -16.06761,-59.63751 -25.28125,-88.96875 -1.66224,-1.21727 -1.42817,-3.07275 -3.21875,-0.375 z"
         id="path14" /><path
         style="fill:#ffffff;fill-opacity:1;stroke:none;stroke-opacity:1"
         d="m 531.81933,395.85496 c -0.51348,-1.375 -6.28552,-21.86331 -12.82674,-45.52958 l -11.89314,-43.02957 -45.16268,-12.47043 c -24.83948,-6.85873 -45.0131,-12.71957 -44.83028,-13.02409 0.18283,-0.30451 20.50823,-6.14424 45.16757,-12.97717 l 44.83515,-12.4235 12.40624,-44.77283 c 6.82342,-24.62506 12.69507,-44.77283 13.0481,-44.77283 0.35303,0 6.22468,20.14777 13.0481,44.77283 l 12.40624,44.77283 44.77283,12.40624 c 24.62506,6.82342 44.77283,12.69507 44.77283,13.0481 0,0.35303 -20.14884,6.22497 -44.77521,13.04876 l -44.7752,12.40689 -12.63011,45.52218 c -10.40804,37.51328 -12.79435,45.08234 -13.5637,43.02217 z"
         id="path15" /></g><g
       inkscape:label="Livello 1"
       id="g17"
       transform="matrix(0.01004204,0,0,0.01004204,92.280245,43.322285)"
       style="fill:#ffffff;fill-opacity:1;stroke:none"><g
         id="g16"
         style="fill:#ffffff;fill-opacity:1;stroke:none" /><path
         style="fill:#ffffff;fill-opacity:1;stroke:none;stroke-opacity:1"
         d="m 531.15625,165.4375 c -6.79637,18.80885 -11.36724,38.83237 -17.06203,58.18506 -2.87515,10.38623 -5.75031,20.77246 -8.62547,31.15869 -29.79093,8.37531 -59.85563,16.22137 -89.375,25.21875 -4.39686,3.24345 3.36013,4.72368 5.7578,5.48626 27.71858,8.23652 55.73112,15.64321 83.6172,23.41999 8.34904,29.41606 15.89915,59.1507 24.84375,88.34375 3.75023,3.19632 5.43638,-3.69723 6.19123,-6.22993 8.2209,-27.19233 15.4152,-54.72374 23.12127,-82.08257 29.69663,-8.48422 59.78111,-15.92526 89.125,-25.4375 4.78041,-3.03352 -2.58231,-4.06209 -5.11388,-5.06926 -27.81776,-8.35581 -55.98036,-15.79565 -83.97987,-23.64949 -8.38619,-29.65928 -16.06761,-59.63751 -25.28125,-88.96875 -1.66224,-1.21727 -1.42817,-3.07275 -3.21875,-0.375 z"
         id="path16" /><path
         style="fill:#ffffff;fill-opacity:1;stroke:none;stroke-opacity:1"
         d="m 531.81933,395.85496 c -0.51348,-1.375 -6.28552,-21.86331 -12.82674,-45.52958 l -11.89314,-43.02957 -45.16268,-12.47043 c -24.83948,-6.85873 -45.0131,-12.71957 -44.83028,-13.02409 0.18283,-0.30451 20.50823,-6.14424 45.16757,-12.97717 l 44.83515,-12.4235 12.40624,-44.77283 c 6.82342,-24.62506 12.69507,-44.77283 13.0481,-44.77283 0.35303,0 6.22468,20.14777 13.0481,44.77283 l 12.40624,44.77283 44.77283,12.40624 c 24.62506,6.82342 44.77283,12.69507 44.77283,13.0481 0,0.35303 -20.14884,6.22497 -44.77521,13.04876 l -44.7752,12.40689 -12.63011,45.52218 c -10.40804,37.51328 -12.79435,45.08234 -13.5637,43.02217 z"
         id="path17" /></g><g
       inkscape:label="Livello 1"
       id="g19"
       transform="matrix(0.01004204,0,0,0.01004204,117.47457,64.49728)"
       style="fill:#ffffff;fill-opacity:1;stroke:none"><g
         id="g18"
         style="fill:#ffffff;fill-opacity:1;stroke:none" /><path
         style="fill:#ffffff;fill-opacity:1;stroke:none;stroke-opacity:1"
         d="m 531.15625,165.4375 c -6.79637,18.80885 -11.36724,38.83237 -17.06203,58.18506 -2.87515,10.38623 -5.75031,20.77246 -8.62547,31.15869 -29.79093,8.37531 -59.85563,16.22137 -89.375,25.21875 -4.39686,3.24345 3.36013,4.72368 5.7578,5.48626 27.71858,8.23652 55.73112,15.64321 83.6172,23.41999 8.34904,29.41606 15.89915,59.1507 24.84375,88.34375 3.75023,3.19632 5.43638,-3.69723 6.19123,-6.22993 8.2209,-27.19233 15.4152,-54.72374 23.12127,-82.08257 29.69663,-8.48422 59.78111,-15.92526 89.125,-25.4375 4.78041,-3.03352 -2.58231,-4.06209 -5.11388,-5.06926 -27.81776,-8.35581 -55.98036,-15.79565 -83.97987,-23.64949 -8.38619,-29.65928 -16.06761,-59.63751 -25.28125,-88.96875 -1.66224,-1.21727 -1.42817,-3.07275 -3.21875,-0.375 z"
         id="path18" /><path
         style="fill:#ffffff;fill-opacity:1;stroke:none;stroke-opacity:1"
         d="m 531.81933,395.85496 c -0.51348,-1.375 -6.28552,-21.86331 -12.82674,-45.52958 l -11.89314,-43.02957 -45.16268,-12.47043 c -24.83948,-6.85873 -45.0131,-12.71957 -44.83028,-13.02409 0.18283,-0.30451 20.50823,-6.14424 45.16757,-12.97717 l 44.83515,-12.4235 12.40624,-44.77283 c 6.82342,-24.62506 12.69507,-44.77283 13.0481,-44.77283 0.35303,0 6.22468,20.14777 13.0481,44.77283 l 12.40624,44.77283 44.77283,12.40624 c 24.62506,6.82342 44.77283,12.69507 44.77283,13.0481 0,0.35303 -20.14884,6.22497 -44.77521,13.04876 l -44.7752,12.40689 -12.63011,45.52218 c -10.40804,37.51328 -12.79435,45.08234 -13.5637,43.02217 z"
         id="path19" /></g><g
       inkscape:label="Livello 1"
       id="g21"
       transform="matrix(0.01004204,0,0,0.01004204,110.80837,62.634665)"
       style="fill:#ffffff;fill-opacity:1;stroke:none"><g
         id="g20"
         style="fill:#ffffff;fill-opacity:1;stroke:none" /><path
         style="fill:#ffffff;fill-opacity:1;stroke:none;stroke-opacity:1"
         d="m 531.15625,165.4375 c -6.79637,18.80885 -11.36724,38.83237 -17.06203,58.18506 -2.87515,10.38623 -5.75031,20.77246 -8.62547,31.15869 -29.79093,8.37531 -59.85563,16.22137 -89.375,25.21875 -4.39686,3.24345 3.36013,4.72368 5.7578,5.48626 27.71858,8.23652 55.73112,15.64321 83.6172,23.41999 8.34904,29.41606 15.89915,59.1507 24.84375,88.34375 3.75023,3.19632 5.43638,-3.69723 6.19123,-6.22993 8.2209,-27.19233 15.4152,-54.72374 23.12127,-82.08257 29.69663,-8.48422 59.78111,-15.92526 89.125,-25.4375 4.78041,-3.03352 -2.58231,-4.06209 -5.11388,-5.06926 -27.81776,-8.35581 -55.98036,-15.79565 -83.97987,-23.64949 -8.38619,-29.65928 -16.06761,-59.63751 -25.28125,-88.96875 -1.66224,-1.21727 -1.42817,-3.07275 -3.21875,-0.375 z"
         id="path20" /><path
         style="fill:#ffffff;fill-opacity:1;stroke:none;stroke-opacity:1"
         d="m 531.81933,395.85496 c -0.51348,-1.375 -6.28552,-21.86331 -12.82674,-45.52958 l -11.89314,-43.02957 -45.16268,-12.47043 c -24.83948,-6.85873 -45.0131,-12.71957 -44.83028,-13.02409 0.18283,-0.30451 20.50823,-6.14424 45.16757,-12.97717 l 44.83515,-12.4235 12.40624,-44.77283 c 6.82342,-24.62506 12.69507,-44.77283 13.0481,-44.77283 0.35303,0 6.22468,20.14777 13.0481,44.77283 l 12.40624,44.77283 44.77283,12.40624 c 24.62506,6.82342 44.77283,12.69507 44.77283,13.0481 0,0.35303 -20.14884,6.22497 -44.77521,13.04876 l -44.7752,12.40689 -12.63011,45.52218 c -10.40804,37.51328 -12.79435,45.08234 -13.5637,43.02217 z"
         id="path21" /></g><g
       inkscape:label="Livello 1"
       id="g23"
       transform="matrix(0.01004204,0,0,0.01004204,99.044484,87.044729)"
       style="fill:#ffffff;fill-opacity:1;stroke:none"><g
         id="g22"
         style="fill:#ffffff;fill-opacity:1;stroke:none" /><path
         style="fill:#ffffff;fill-opacity:1;stroke:none;stroke-opacity:1"
         d="m 531.15625,165.4375 c -6.79637,18.80885 -11.36724,38.83237 -17.06203,58.18506 -2.87515,10.38623 -5.75031,20.77246 -8.62547,31.15869 -29.79093,8.37531 -59.85563,16.22137 -89.375,25.21875 -4.39686,3.24345 3.36013,4.72368 5.7578,5.48626 27.71858,8.23652 55.73112,15.64321 83.6172,23.41999 8.34904,29.41606 15.89915,59.1507 24.84375,88.34375 3.75023,3.19632 5.43638,-3.69723 6.19123,-6.22993 8.2209,-27.19233 15.4152,-54.72374 23.12127,-82.08257 29.69663,-8.48422 59.78111,-15.92526 89.125,-25.4375 4.78041,-3.03352 -2.58231,-4.06209 -5.11388,-5.06926 -27.81776,-8.35581 -55.98036,-15.79565 -83.97987,-23.64949 -8.38619,-29.65928 -16.06761,-59.63751 -25.28125,-88.96875 -1.66224,-1.21727 -1.42817,-3.07275 -3.21875,-0.375 z"
         id="path22" /><path
         style="fill:#ffffff;fill-opacity:1;stroke:none;stroke-opacity:1"
         d="m 531.81933,395.85496 c -0.51348,-1.375 -6.28552,-21.86331 -12.82674,-45.52958 l -11.89314,-43.02957 -45.16268,-12.47043 c -24.83948,-6.85873 -45.0131,-12.71957 -44.83028,-13.02409 0.18283,-0.30451 20.50823,-6.14424 45.16757,-12.97717 l 44.83515,-12.4235 12.40624,-44.77283 c 6.82342,-24.62506 12.69507,-44.77283 13.0481,-44.77283 0.35303,0 6.22468,20.14777 13.0481,44.77283 l 12.40624,44.77283 44.77283,12.40624 c 24.62506,6.82342 44.77283,12.69507 44.77283,13.0481 0,0.35303 -20.14884,6.22497 -44.77521,13.04876 l -44.7752,12.40689 -12.63011,45.52218 c -10.40804,37.51328 -12.79435,45.08234 -13.5637,43.02217 z"
         id="path23" /></g><g
       inkscape:label="Livello 1"
       id="g25"
       transform="matrix(0.01004204,0,0,0.01004204,85.908144,83.319498)"
       style="fill:#ffffff;fill-opacity:1;stroke:none"><g
         id="g24"
         style="fill:#ffffff;fill-opacity:1;stroke:none" /><path
         style="fill:#ffffff;fill-opacity:1;stroke:none;stroke-opacity:1"
         d="m 531.15625,165.4375 c -6.79637,18.80885 -11.36724,38.83237 -17.06203,58.18506 -2.87515,10.38623 -5.75031,20.77246 -8.62547,31.15869 -29.79093,8.37531 -59.85563,16.22137 -89.375,25.21875 -4.39686,3.24345 3.36013,4.72368 5.7578,5.48626 27.71858,8.23652 55.73112,15.64321 83.6172,23.41999 8.34904,29.41606 15.89915,59.1507 24.84375,88.34375 3.75023,3.19632 5.43638,-3.69723 6.19123,-6.22993 8.2209,-27.19233 15.4152,-54.72374 23.12127,-82.08257 29.69663,-8.48422 59.78111,-15.92526 89.125,-25.4375 4.78041,-3.03352 -2.58231,-4.06209 -5.11388,-5.06926 -27.81776,-8.35581 -55.98036,-15.79565 -83.97987,-23.64949 -8.38619,-29.65928 -16.06761,-59.63751 -25.28125,-88.96875 -1.66224,-1.21727 -1.42817,-3.07275 -3.21875,-0.375 z"
         id="path24" /><path
         style="fill:#ffffff;fill-opacity:1;stroke:none;stroke-opacity:1"
         d="m 531.81933,395.85496 c -0.51348,-1.375 -6.28552,-21.86331 -12.82674,-45.52958 l -11.89314,-43.02957 -45.16268,-12.47043 c -24.83948,-6.85873 -45.0131,-12.71957 -44.83028,-13.02409 0.18283,-0.30451 20.50823,-6.14424 45.16757,-12.97717 l 44.83515,-12.4235 12.40624,-44.77283 c 6.82342,-24.62506 12.69507,-44.77283 13.0481,-44.77283 0.35303,0 6.22468,20.14777 13.0481,44.77283 l 12.40624,44.77283 44.77283,12.40624 c 24.62506,6.82342 44.77283,12.69507 44.77283,13.0481 0,0.35303 -20.14884,6.22497 -44.77521,13.04876 l -44.7752,12.40689 -12.63011,45.52218 c -10.40804,37.51328 -12.79435,45.08234 -13.5637,43.02217 z"
         id="path25" /><path
         style="fill:#ffffff;fill-opacity:1;stroke:none;stroke-opacity:1"
         d="m -483.44929,-346.07211 c -0.51348,-1.375 -6.28552,-21.86331 -12.82674,-45.52958 l -11.89314,-43.02957 -45.16268,-12.47043 c -24.83948,-6.85873 -45.0131,-12.71957 -44.83028,-13.02409 0.18283,-0.30451 20.50823,-6.14424 45.16757,-12.97717 l 44.83515,-12.4235 12.40624,-44.77283 c 6.82342,-24.62506 12.69507,-44.77283 13.0481,-44.77283 0.35303,0 6.22468,20.14777 13.0481,44.77283 l 12.40624,44.77283 44.77283,12.40624 c 24.62506,6.82342 44.77283,12.69507 44.77283,13.0481 0,0.35303 -20.14884,6.22497 -44.77521,13.04876 l -44.7752,12.40689 -12.63011,45.52218 c -10.40804,37.51328 -12.79435,45.08234 -13.5637,43.02217 z"
         id="path26" /><path
         style="fill:#ffffff;fill-opacity:1;stroke:none;stroke-opacity:1"
         d="m -405.3517,200.61099 c -0.51348,-1.375 -6.28552,-21.86331 -12.82674,-45.52958 l -11.89314,-43.02957 -45.16268,-12.470427 c -24.83948,-6.85873 -45.0131,-12.71957 -44.83028,-13.02409 0.18283,-0.30451 20.50823,-6.14424 45.16757,-12.97717 l 44.83515,-12.4235 12.40624,-44.77283 c 6.82342,-24.6250595 12.69507,-44.77283 13.0481,-44.77283 0.35303,0 6.22468,20.1477705 13.0481,44.77283 l 12.40624,44.77283 44.77283,12.40624 c 24.62506,6.82342 44.77283,12.69507 44.77283,13.0481 0,0.35303 -20.14884,6.22497 -44.77521,13.04876 l -44.7752,12.406887 -12.63011,45.52218 c -10.40804,37.51328 -12.79435,45.08234 -13.5637,43.02217 z"
         id="path27" /><path
         style="fill:#ffffff;fill-opacity:1;stroke:none;stroke-opacity:1"
         d="m -463.92489,-941.56621 c -0.51348,-1.375 -6.28552,-21.86331 -12.82674,-45.52958 l -11.89314,-43.02961 -45.16268,-12.4704 c -24.83948,-6.8587 -45.0131,-12.7196 -44.83028,-13.0241 0.18283,-0.3045 20.50823,-6.1442 45.16757,-12.9771 l 44.83515,-12.4235 12.40624,-44.7729 c 6.82342,-24.625 12.69507,-44.7728 13.0481,-44.7728 0.35303,0 6.22468,20.1478 13.0481,44.7728 l 12.40624,44.7729 44.77283,12.4062 c 24.62506,6.8234 44.77283,12.6951 44.77283,13.0481 0,0.353 -20.14884,6.225 -44.77521,13.0488 l -44.7752,12.4068 -12.63011,45.52222 c -10.40804,37.51328 -12.79435,45.08234 -13.5637,43.02217 z"
         id="path28" /><path
         style="fill:#ffffff;fill-opacity:1;stroke:none;stroke-opacity:1"
         d="m -1362.0471,-1800.6397 c -0.5135,-1.375 -6.2856,-21.8633 -12.8268,-45.5295 l -11.8931,-43.0296 -45.1627,-12.4704 c -24.8395,-6.8587 -45.0131,-12.7196 -44.8303,-13.0241 0.1829,-0.3045 20.5083,-6.1442 45.1676,-12.9771 l 44.8351,-12.4235 12.4063,-44.7729 c 6.8234,-24.625 12.6951,-44.7728 13.0481,-44.7728 0.353,0 6.2247,20.1478 13.0481,44.7728 l 12.4062,44.7729 44.7729,12.4062 c 24.625,6.8234 44.7728,12.6951 44.7728,13.0481 0,0.353 -20.1489,6.225 -44.7752,13.0488 l -44.7752,12.4068 -12.6301,45.5222 c -10.4081,37.5133 -12.7944,45.0823 -13.5637,43.0221 z"
         id="path29" /><path
         style="fill:#ffffff;fill-opacity:1;stroke:none;stroke-opacity:1"
         d="m 990.64268,-1634.6823 c -0.5135,-1.375 -6.2856,-21.8633 -12.8268,-45.5295 l -11.8931,-43.0296 -45.1627,-12.4704 c -24.8395,-6.8587 -45.0131,-12.7196 -44.8303,-13.0241 0.1829,-0.3045 20.5083,-6.1442 45.1676,-12.9771 l 44.8351,-12.4235 12.4063,-44.7729 c 6.8234,-24.625 12.6951,-44.7728 13.0481,-44.7728 0.353,0 6.2247,20.1478 13.04812,44.7728 l 12.4062,44.7729 44.7729,12.4062 c 24.625,6.8234 44.7728,12.6951 44.7728,13.0481 0,0.353 -20.1489,6.225 -44.7752,13.0488 l -44.7752,12.4068 -12.6301,45.5222 c -10.40812,37.5133 -12.79442,45.0823 -13.56372,43.0221 z"
         id="path30" /><path
         style="fill:#ffffff;fill-opacity:1;stroke:none;stroke-opacity:1"
         d="m 1195.6488,-1166.0968 c -0.5135,-1.375 -6.2856,-21.8633 -12.8268,-45.5295 l -11.8931,-43.0296 -45.1627,-12.4704 c -24.8395,-6.8587 -45.0131,-12.7196 -44.8303,-13.0241 0.1829,-0.3045 20.5083,-6.1442 45.1676,-12.9771 l 44.8351,-12.4235 12.4063,-44.7729 c 6.8234,-24.625 12.6951,-44.7728 13.0481,-44.7728 0.353,0 6.2247,20.1478 13.0482,44.7728 l 12.4062,44.7729 44.7729,12.4062 c 24.625,6.8234 44.7728,12.6951 44.7728,13.0481 0,0.353 -20.1489,6.225 -44.7752,13.0488 l -44.7752,12.4068 -12.6301,45.5222 c -10.4082,37.5133 -12.7945,45.0823 -13.5638,43.0221 z"
         id="path31" /><path
         style="fill:#ffffff;fill-opacity:1;stroke:none;stroke-opacity:1"
         d="m 1195.6488,-1166.0968 c -0.5135,-1.375 -6.2856,-21.8633 -12.8268,-45.5295 l -11.8931,-43.0296 -45.1627,-12.4704 c -24.8395,-6.8587 -45.0131,-12.7196 -44.8303,-13.0241 0.1829,-0.3045 20.5083,-6.1442 45.1676,-12.9771 l 44.8351,-12.4235 12.4063,-44.7729 c 6.8234,-24.625 12.6951,-44.7728 13.0481,-44.7728 0.353,0 6.2247,20.1478 13.0482,44.7728 l 12.4062,44.7729 44.7729,12.4062 c 24.625,6.8234 44.7728,12.6951 44.7728,13.0481 0,0.353 -20.1489,6.225 -44.7752,13.0488 l -44.7752,12.4068 -12.6301,45.5222 c -10.4082,37.5133 -12.7945,45.0823 -13.5638,43.0221 z"
         id="path32" /></g><g
       inkscape:label="Livello 1"
       id="g34"
       transform="matrix(0.01004204,0,0,0.01004204,108.65166,45.282932)"
       style="fill:#ffffff;fill-opacity:1;stroke:none"><g
         id="g32"
         style="fill:#ffffff;fill-opacity:1;stroke:none" /><path
         style="fill:#ffffff;fill-opacity:1;stroke:none;stroke-opacity:1"
         d="m 531.15625,165.4375 c -6.79637,18.80885 -11.36724,38.83237 -17.06203,58.18506 -2.87515,10.38623 -5.75031,20.77246 -8.62547,31.15869 -29.79093,8.37531 -59.85563,16.22137 -89.375,25.21875 -4.39686,3.24345 3.36013,4.72368 5.7578,5.48626 27.71858,8.23652 55.73112,15.64321 83.6172,23.41999 8.34904,29.41606 15.89915,59.1507 24.84375,88.34375 3.75023,3.19632 5.43638,-3.69723 6.19123,-6.22993 8.2209,-27.19233 15.4152,-54.72374 23.12127,-82.08257 29.69663,-8.48422 59.78111,-15.92526 89.125,-25.4375 4.78041,-3.03352 -2.58231,-4.06209 -5.11388,-5.06926 -27.81776,-8.35581 -55.98036,-15.79565 -83.97987,-23.64949 -8.38619,-29.65928 -16.06761,-59.63751 -25.28125,-88.96875 -1.66224,-1.21727 -1.42817,-3.07275 -3.21875,-0.375 z"
         id="path33" /><path
         style="fill:#ffffff;fill-opacity:1;stroke:none;stroke-opacity:1"
         d="m 531.81933,395.85496 c -0.51348,-1.375 -6.28552,-21.86331 -12.82674,-45.52958 l -11.89314,-43.02957 -45.16268,-12.47043 c -24.83948,-6.85873 -45.0131,-12.71957 -44.83028,-13.02409 0.18283,-0.30451 20.50823,-6.14424 45.16757,-12.97717 l 44.83515,-12.4235 12.40624,-44.77283 c 6.82342,-24.62506 12.69507,-44.77283 13.0481,-44.77283 0.35303,0 6.22468,20.14777 13.0481,44.77283 l 12.40624,44.77283 44.77283,12.40624 c 24.62506,6.82342 44.77283,12.69507 44.77283,13.0481 0,0.35303 -20.14884,6.22497 -44.77521,13.04876 l -44.7752,12.40689 -12.63011,45.52218 c -10.40804,37.51328 -12.79435,45.08234 -13.5637,43.02217 z"
         id="path34" /></g><g
       inkscape:label="Livello 1"
       id="g36"
       transform="matrix(0.01004204,0,0,0.01004204,115.61196,49.890454)"
       style="fill:#ffffff;fill-opacity:1;stroke:none"><g
         id="g35"
         style="fill:#ffffff;fill-opacity:1;stroke:none" /><path
         style="fill:#ffffff;fill-opacity:1;stroke:none;stroke-opacity:1"
         d="m 531.15625,165.4375 c -6.79637,18.80885 -11.36724,38.83237 -17.06203,58.18506 -2.87515,10.38623 -5.75031,20.77246 -8.62547,31.15869 -29.79093,8.37531 -59.85563,16.22137 -89.375,25.21875 -4.39686,3.24345 3.36013,4.72368 5.7578,5.48626 27.71858,8.23652 55.73112,15.64321 83.6172,23.41999 8.34904,29.41606 15.89915,59.1507 24.84375,88.34375 3.75023,3.19632 5.43638,-3.69723 6.19123,-6.22993 8.2209,-27.19233 15.4152,-54.72374 23.12127,-82.08257 29.69663,-8.48422 59.78111,-15.92526 89.125,-25.4375 4.78041,-3.03352 -2.58231,-4.06209 -5.11388,-5.06926 -27.81776,-8.35581 -55.98036,-15.79565 -83.97987,-23.64949 -8.38619,-29.65928 -16.06761,-59.63751 -25.28125,-88.96875 -1.66224,-1.21727 -1.42817,-3.07275 -3.21875,-0.375 z"
         id="path35" /><path
         style="fill:#ffffff;fill-opacity:1;stroke:none;stroke-opacity:1"
         d="m 531.81933,395.85496 c -0.51348,-1.375 -6.28552,-21.86331 -12.82674,-45.52958 l -11.89314,-43.02957 -45.16268,-12.47043 c -24.83948,-6.85873 -45.0131,-12.71957 -44.83028,-13.02409 0.18283,-0.30451 20.50823,-6.14424 45.16757,-12.97717 l 44.83515,-12.4235 12.40624,-44.77283 c 6.82342,-24.62506 12.69507,-44.77283 13.0481,-44.77283 0.35303,0 6.22468,20.14777 13.0481,44.77283 l 12.40624,44.77283 44.77283,12.40624 c 24.62506,6.82342 44.77283,12.69507 44.77283,13.0481 0,0.35303 -20.14884,6.22497 -44.77521,13.04876 l -44.7752,12.40689 -12.63011,45.52218 c -10.40804,37.51328 -12.79435,45.08234 -13.5637,43.02217 z"
         id="path36" /></g></g></svg>
